<?xml version="1.0" encoding="UTF-8"?>
<svg version="1.1" xmlns="http://www.w3.org/2000/svg" width="500" height="500">
<path d="M0 0 C1.9406559 -0.00629173 1.9406559 -0.00629173 3.92051697 -0.01271057 C5.35888746 -0.00722565 6.79725721 -0.00154263 8.23562622 0.00431824 C9.74924298 0.00324511 11.26285934 0.00130598 12.776474 -0.00143433 C16.90525941 -0.00629828 21.03393728 0.00140597 25.16270971 0.01151872 C29.52589121 0.02034086 33.8890697 0.01854052 38.2522583 0.01815796 C45.62515025 0.01909702 52.9980013 0.02778941 60.37088013 0.04142761 C67.85168267 0.0552188 75.33244751 0.06245697 82.81326294 0.06193542 C162.14718348 0.05686053 162.14718348 0.05686053 199.8298645 1.24723816 C200.47590104 2.84751108 201.12047733 4.44837357 201.76443481 6.04948425 C202.12353943 6.94090118 202.48264404 7.83231812 202.85263062 8.75074768 C203.89991712 11.42619808 204.79061947 14.10988055 205.5798645 16.87223816 C205.82220825 17.71012878 206.064552 18.54801941 206.3142395 19.41130066 C206.48439575 20.01716003 206.654552 20.62301941 206.8298645 21.24723816 C207.8198645 20.75223816 207.8198645 20.75223816 208.8298645 20.24723816 C209.55149558 18.04144277 210.18296763 15.8057936 210.7673645 13.55973816 C212.01937694 8.75951233 213.55806028 4.6501908 215.8298645 0.24723816 C236.43562399 0.22360558 257.04138064 0.2061131 277.64715099 0.19542599 C287.22034859 0.19032617 296.79353764 0.18340822 306.36672974 0.17179871 C314.73597909 0.16165429 323.10522225 0.15533922 331.47447759 0.15314966 C336.62083421 0.15166173 341.76716492 0.14716987 346.91351259 0.13723457 C372.91050345 0.10680895 398.82553022 0.66936406 424.8298645 1.24723816 C424.8298645 33.91723816 424.8298645 66.58723816 424.8298645 100.24723816 C410.8298645 101.24723816 410.8298645 101.24723816 406.0173645 101.18473816 C399.90094059 101.1391782 394.69007712 101.70365748 389.8923645 105.68473816 C386.1551638 110.32792691 385.5218847 113.22007315 385.52908325 119.02067566 C385.52479813 119.78143402 385.520513 120.54219238 385.51609802 121.32600403 C385.51035803 122.93482977 385.50985204 124.54368147 385.51419067 126.1525116 C385.51734417 128.60641649 385.49391156 131.05910789 385.46853638 133.51286316 C385.4662626 135.07796581 385.46556025 136.64307169 385.46658325 138.20817566 C385.45276863 139.30372269 385.45276863 139.30372269 385.43867493 140.42140198 C385.4789674 144.88914371 386.1089029 147.68369564 388.8298645 151.24723816 C399.95456091 161.23094007 406.4875458 157.56789302 424.8298645 158.24723816 C424.8298645 190.91723816 424.8298645 223.58723816 424.8298645 257.24723816 C370.35025057 257.24723816 370.35025057 257.24723816 347.478302 257.06364441 C345.52178525 257.04868633 343.56526848 257.03373009 341.60875094 257.01887554 C335.52261043 256.97260468 329.43648739 256.92441878 323.35037231 256.87492371 C317.91646975 256.83076976 312.48255458 256.78918514 307.0486145 256.74992371 C273.96826747 256.51036305 240.90025496 256.11974382 207.8298645 255.24723816 C207.8298645 255.90723816 207.8298645 256.56723816 207.8298645 257.24723816 C173.53259938 257.32114383 139.23887634 257.13410613 104.94287455 256.85839784 C99.45463094 256.81456161 93.96636453 256.77448908 88.47808641 256.73524624 C83.01575927 256.69602131 77.55345645 256.65410906 72.09116369 256.61035961 C68.89958436 256.58483063 65.70800531 256.56042423 62.51640129 256.53816414 C38.6111738 256.36906803 14.73528834 255.7784698 -9.1701355 255.24723816 C-9.1701355 222.57723816 -9.1701355 189.90723816 -9.1701355 156.24723816 C0.0698645 155.91723816 9.3098645 155.58723816 18.8298645 155.24723816 C24.66621941 151.35633489 27.63901601 148.81978362 29.8298645 142.24723816 C30.09369148 137.68902747 30.06139202 133.12474936 30.0798645 128.55973816 C30.1004895 127.30483582 30.1211145 126.04993347 30.1423645 124.75700378 C30.1713494 117.87671425 29.96842676 112.42903251 26.8298645 106.24723816 C26.30038208 105.72557068 25.77089966 105.2039032 25.22537231 104.66642761 C23.8298645 103.24723816 23.8298645 103.24723816 23.8298645 101.24723816 C19.93071924 100.34989187 16.21252152 100.05855596 12.21658325 99.93083191 C10.96941528 99.88893738 9.72224731 99.84704285 8.43728638 99.80387878 C7.14371216 99.76456238 5.85013794 99.72524597 4.5173645 99.68473816 C3.20445435 99.64155457 1.89154419 99.59837097 0.53884888 99.55387878 C-2.69737838 99.44796589 -5.93368007 99.3458893 -9.1701355 99.24723816 C-9.23953147 86.63458564 -9.29289376 74.02197825 -9.32557201 61.40917397 C-9.34125297 55.55304362 -9.36253553 49.69704353 -9.39645386 43.84098816 C-9.42896068 38.19352812 -9.44697019 32.54619365 -9.45476723 26.89864731 C-9.46032637 24.73997901 -9.47118142 22.58131787 -9.48732567 20.42270279 C-9.50898457 17.40784397 -9.51210727 14.39350943 -9.51071167 11.37858582 C-9.5214975 10.47875473 -9.53228333 9.57892365 -9.543396 8.65182495 C-9.53089905 6.17024231 -9.53089905 6.17024231 -9.1701355 2.24723816 C-5.63496641 -0.10954123 -4.18747966 -0.00202583 0 0 Z M228.8298645 97.24723816 C227.07238836 101.75077078 226.63692043 105.42363627 226.8298645 110.24723816 C228.8098645 110.24723816 230.7898645 110.24723816 232.8298645 110.24723816 C233.1598645 106.61723816 233.4898645 102.98723816 233.8298645 99.24723816 C231.3548645 98.25723816 231.3548645 98.25723816 228.8298645 97.24723816 Z M181.8298645 101.24723816 C181.3298645 104.24723816 181.3298645 104.24723816 181.8298645 107.24723816 C183.3148645 108.23723816 183.3148645 108.23723816 184.8298645 109.24723816 C186.1498645 108.91723816 187.4698645 108.58723816 188.8298645 108.24723816 C188.4998645 105.27723816 188.1698645 102.30723816 187.8298645 99.24723816 C184.64496444 98.96988806 184.64496444 98.96988806 181.8298645 101.24723816 Z M206.8298645 151.24723816 C206.1698645 153.55723816 205.5098645 155.86723816 204.8298645 158.24723816 C205.8198645 158.24723816 206.8098645 158.24723816 207.8298645 158.24723816 C208.52145851 156.39998764 208.52145851 156.39998764 208.8298645 154.24723816 C208.1698645 153.25723816 207.5098645 152.26723816 206.8298645 151.24723816 Z " fill="#FED100" transform="translate(45.170135498046875,141.7527618408203)"/>
<path d="M0 0 C15.18 0.33 30.36 0.66 46 1 C46 33.67 46 66.34 46 100 C32 101 32 101 27.1875 100.9375 C21.07107609 100.89194005 15.86021262 101.45641932 11.0625 105.4375 C7.3252993 110.08068875 6.6920202 112.97283499 6.69921875 118.7734375 C6.69279106 119.91457504 6.69279106 119.91457504 6.68623352 121.07876587 C6.68049353 122.68759161 6.67998754 124.29644331 6.68432617 125.90527344 C6.68747967 128.35917833 6.66404706 130.81186973 6.63867188 133.265625 C6.63639809 134.83072765 6.63569575 136.39583353 6.63671875 137.9609375 C6.627509 138.69130219 6.61829926 139.42166687 6.60881042 140.17416382 C6.6491029 144.64190555 7.2790384 147.43645748 10 151 C21.12469641 160.98370191 27.6576813 157.32065486 46 158 C46 190.67 46 223.34 46 257 C30.49 257 14.98 257 -1 257 C-1 224.33 -1 191.66 -1 158 C-8.92 157.67 -16.84 157.34 -25 157 C-34.04528171 153.60801936 -34.04528171 153.60801936 -36.9375 150.0625 C-37.50339844 149.39347656 -38.06929688 148.72445312 -38.65234375 148.03515625 C-42.3064122 142.51698331 -41.33251751 135.27263839 -41.4050293 128.89306641 C-41.42657168 127.47126927 -41.46063162 126.04960343 -41.50756836 124.62841797 C-41.97404747 110.34187273 -41.97404747 110.34187273 -36.49243164 104.48925781 C-35.9999292 103.99780273 -35.50742676 103.50634766 -35 103 C-34.34 102.01 -33.68 101.02 -33 100 C-23.14324822 95.07162411 -11.0201835 98 0 98 C0 65.66 0 33.32 0 0 Z " fill="#D06BE2" transform="translate(424,142)"/>
<path d="M0 0 C4.4921875 11.23046875 4.4921875 11.23046875 5.27636719 13.20849609 C5.86593077 14.66808366 6.49389426 16.11211362 7.1328125 17.55078125 C8 20 8 20 8.41796875 23.38671875 C9.06865454 27.42621105 10.39081628 30.21191487 12.3125 33.8125 C14.84433302 38.66001821 17.13784882 43.50498817 19.078125 48.62109375 C20.05925506 51.1529082 21.13006242 53.64038588 22.20605469 56.13305664 C23.79037878 59.85855673 25.2599509 63.63060514 26.75 67.39453125 C26.9975 68.01714844 27.245 68.63976562 27.5 69.28125 C27.7165625 69.82845703 27.933125 70.37566406 28.15625 70.93945312 C29.39944556 73.97549783 30.70766234 76.98454547 32 80 C38.93 80 45.86 80 53 80 C53.66 76.7 54.32 73.4 55 70 C55.99 69.67 56.98 69.34 58 69 C58.185625 67.824375 58.185625 67.824375 58.375 66.625 C59 64 59 64 61 62 C61.99 62 62.98 62 64 62 C65.7026057 65.40521141 65.12864821 69.29392119 65.11352539 73.03955078 C65.11367142 73.97618561 65.11381744 74.91282043 65.1139679 75.87783813 C65.11326944 78.98368622 65.10548015 82.08947485 65.09765625 85.1953125 C65.09579183 87.34479744 65.09436804 89.4942828 65.09336853 91.64376831 C65.08954522 97.30895149 65.07971651 102.97410915 65.06866455 108.63928223 C65.05665078 115.43241346 65.0520473 122.22555321 65.04621124 129.01869202 C65.03650467 139.34581244 65.01734679 149.67287684 65 160 C49.82 160 34.64 160 19 160 C19.33 127 19.66 94 20 60 C16.7 60 13.4 60 10 60 C3.13917635 57.75054962 -1.61542867 54.51899851 -5.15075684 48.13009644 C-6.78194142 44.03871177 -6.60373653 39.82409976 -6.609375 35.47265625 C-6.62591125 34.48373886 -6.64244751 33.49482147 -6.65948486 32.47593689 C-6.70781071 29.33806043 -6.72930191 26.2006681 -6.75 23.0625 C-6.77817251 20.92640814 -6.80810173 18.79033868 -6.83984375 16.65429688 C-6.91356514 11.43628536 -6.96529784 6.21840913 -7 1 C-4 0 -4 0 0 0 Z " fill="#D169E6" transform="translate(188,239)"/>
<path d="M0 0 C5.75 -0.125 5.75 -0.125 8 1 C21.365 1.495 21.365 1.495 35 2 C35 33.68 35 65.36 35 98 C20.81 98 6.62 98 -8 98 C-8.04010881 74.87058662 -8.04010881 74.87058662 -8.04882812 65.0390625 C-8.05481438 58.32095555 -8.06190891 51.60286217 -8.07543945 44.88476562 C-8.08627576 39.47073594 -8.09227842 34.05672081 -8.09487724 28.64268112 C-8.09673014 26.57334539 -8.10034819 24.5040105 -8.10573006 22.43468094 C-8.11295032 19.54448959 -8.11399052 16.65435901 -8.11352539 13.76416016 C-8.11712067 12.90173203 -8.12071594 12.03930389 -8.12442017 11.15074158 C-8.11405216 5.22810432 -8.11405216 5.22810432 -7 3 C-5.02 3 -3.04 3 -1 3 C-0.67 2.01 -0.34 1.02 0 0 Z " fill="#D16AE6" transform="translate(433,299)"/>
<path d="M0 0 C15.18 0.33 30.36 0.66 46 1 C52.51241816 17.28104539 55.51841864 25.67146959 49 42 C48.14661352 43.93784376 47.29243396 45.87533845 46.4375 47.8125 C44.12397742 53.28854427 42.80942844 58.68927145 41.68359375 64.515625 C41.04355777 67.77797981 40.25896295 70.96703827 39.4375 74.1875 C37.91110162 80.61904316 37.26563172 87.06491163 36.73413086 93.64135742 C36.66589111 94.4222876 36.59765137 95.20321777 36.52734375 96.0078125 C36.47312256 96.70535645 36.41890137 97.40290039 36.36303711 98.12158203 C36 100 36 100 34 103 C34 101.68 34 100.36 34 99 C30.535 99.495 30.535 99.495 27 100 C26.96261719 99.16339844 26.92523438 98.32679688 26.88671875 97.46484375 C26.195376 85.22401041 24.18121447 73.56309311 20 62 C19.38439423 60.14714734 18.76911706 58.29417948 18.15917969 56.43945312 C14.69841454 45.87933932 14.69841454 45.87933932 10.4375 35.625 C8.9720639 31.92955245 8.24135046 28.49514468 7.5234375 24.60546875 C6.08733623 17.4571139 3.60057226 10.73244071 0.76953125 4.03125 C0 2 0 2 0 0 Z " fill="#D16AE3" transform="translate(199,142)"/>
<path d="M0 0 C4.4921875 11.23046875 4.4921875 11.23046875 5.27636719 13.20849609 C5.86593077 14.66808366 6.49389426 16.11211362 7.1328125 17.55078125 C8 20 8 20 8.41796875 23.38671875 C9.06865454 27.42621105 10.39081628 30.21191487 12.3125 33.8125 C14.84433302 38.66001821 17.13784882 43.50498817 19.078125 48.62109375 C20.05925506 51.1529082 21.13006242 53.64038588 22.20605469 56.13305664 C23.79037878 59.85855673 25.2599509 63.63060514 26.75 67.39453125 C26.9975 68.01714844 27.245 68.63976562 27.5 69.28125 C27.7165625 69.82845703 27.933125 70.37566406 28.15625 70.93945312 C29.39944556 73.97549783 30.70766234 76.98454547 32 80 C38.93 80 45.86 80 53 80 C53.66 76.7 54.32 73.4 55 70 C55.99 69.67 56.98 69.34 58 69 C58.185625 67.824375 58.185625 67.824375 58.375 66.625 C59 64 59 64 61 62 C61.99 62 62.98 62 64 62 C65.7026057 65.40521141 65.12864821 69.29392119 65.11352539 73.03955078 C65.11367142 73.97618561 65.11381744 74.91282043 65.1139679 75.87783813 C65.11326944 78.98368622 65.10548015 82.08947485 65.09765625 85.1953125 C65.09579183 87.34479744 65.09436804 89.4942828 65.09336853 91.64376831 C65.08954522 97.30895149 65.07971651 102.97410915 65.06866455 108.63928223 C65.05665078 115.43241346 65.0520473 122.22555321 65.04621124 129.01869202 C65.03650467 139.34581244 65.01734679 149.67287684 65 160 C49.82 160 34.64 160 19 160 C19.33 127 19.66 94 20 60 C16.7 60 13.4 60 10 60 C3.13917635 57.75054962 -1.61542867 54.51899851 -5.15075684 48.13009644 C-6.78194142 44.03871177 -6.60373653 39.82409976 -6.609375 35.47265625 C-6.62591125 34.48373886 -6.64244751 33.49482147 -6.65948486 32.47593689 C-6.70781071 29.33806043 -6.72930191 26.2006681 -6.75 23.0625 C-6.77817251 20.92640814 -6.80810173 18.79033868 -6.83984375 16.65429688 C-6.91356514 11.43628536 -6.96529784 6.21840913 -7 1 C-4 0 -4 0 0 0 Z M61 64 C58.71271266 65.83883881 58.71271266 65.83883881 58.875 68.625 C58.91625 69.40875 58.9575 70.1925 59 71 C58.34 71 57.68 71 57 71 C56.814375 72.36125 56.814375 72.36125 56.625 73.75 C56 77 56 77 54 81 C46.41 81 38.82 81 31 81 C29.68 78.36 28.36 75.72 27 73 C26.01 72.67 25.02 72.34 24 72 C23.01 72.495 23.01 72.495 22 73 C21.67 72.34 21.34 71.68 21 71 C21 99.71 21 128.42 21 158 C34.86 158 48.72 158 63 158 C63 126.98 63 95.96 63 64 C62.34 64 61.68 64 61 64 Z " fill="#D16BDF" transform="translate(188,239)"/>
<path d="M0 0 C0.33 0 0.66 0 1 0 C0.65813528 7.99963437 0.65813528 7.99963437 -1.5625 11.375 C-13.23143337 19.15428892 -23.13119459 16 -38 16 C-38 47.35 -38 78.7 -38 111 C17.44 110.67 72.88 110.34 130 110 C130 79.31 130 48.62 130 17 C126.7 17 123.4 17 120 17 C119.67 16.01 119.34 15.02 119 14 C118.01 13.505 118.01 13.505 117 13 C122.28 13.66 127.56 14.32 133 15 C133.02312121 27.7603387 133.04091395 40.52067245 133.05181217 53.28102779 C133.05704149 59.20550715 133.06414001 65.12997222 133.07543945 71.05444336 C133.08626661 76.76672571 133.09227647 82.47899428 133.09487724 88.19128609 C133.0967318 90.37588277 133.100353 92.56047865 133.10573006 94.7450695 C133.11293821 97.79352349 133.11399104 100.84191979 133.11352539 103.89038086 C133.11712067 104.80315796 133.12071594 105.71593506 133.12442017 106.65637207 C133.11405216 112.88594784 133.11405216 112.88594784 132 114 C130.46892166 114.09804538 128.93332312 114.12631862 127.39910889 114.12698364 C126.40258301 114.12980347 125.40605713 114.13262329 124.3793335 114.13552856 C123.27543274 114.13350433 122.17153198 114.1314801 121.03417969 114.12939453 C119.87736694 114.13114685 118.7205542 114.13289917 117.52868652 114.13470459 C114.33159749 114.13837152 111.13454937 114.13747819 107.9374609 114.1343255 C104.54987951 114.13178261 101.16230075 114.1341472 97.77471924 114.13571167 C92.03763344 114.13753866 86.30056042 114.13512463 80.56347656 114.13037109 C74.05860976 114.12504137 67.55377484 114.12660388 61.04890895 114.1321975 C55.39642476 114.13685355 49.74394978 114.1373173 44.09146428 114.13475883 C40.74829239 114.1332474 37.40514611 114.13327875 34.06197357 114.13629532 C9.68935764 114.15339616 -14.6208169 113.54175962 -39 113 C-39 80.33 -39 47.66 -39 14 C-29.76 13.67 -20.52 13.34 -11 13 C-5.16364509 9.10909673 -2.19084849 6.57254546 0 0 Z " fill="#FACF1B" transform="translate(75,284)"/>
<path d="M0 0 C1.40742022 2.81484045 0.66652164 4.56936113 0.0625 7.625 C-0.13214844 8.62789062 -0.32679688 9.63078125 -0.52734375 10.6640625 C-0.68332031 11.43492187 -0.83929688 12.20578125 -1 13 C0.98 13 2.96 13 5 13 C5.04964866 17.58982793 5.08583672 22.17949754 5.10986328 26.76953125 C5.11988557 28.32912929 5.13350705 29.8887087 5.15087891 31.44824219 C5.1752941 33.69731254 5.1865209 35.94613322 5.1953125 38.1953125 C5.20563507 38.8861795 5.21595764 39.57704651 5.22659302 40.28884888 C5.22757379 44.5754206 4.70527968 48.05882941 3 52 C-2.27986791 57.15987091 -6.94140526 60.1665603 -14.375 60.1875 C-15.91719346 60.13973295 -17.45925884 60.08221346 -19 60 C-21.07068209 54.42125511 -21.0831375 51.69885489 -18.8125 46 C-18.33425781 44.77539062 -17.85601562 43.55078125 -17.36328125 42.2890625 C-16.91339844 41.20367187 -16.46351563 40.11828125 -16 39 C-15.505 37.80375 -15.01 36.6075 -14.5 35.375 C-14.005 34.26125 -13.51 33.1475 -13 32 C-11.72204418 28.92555676 -10.45208342 25.84789091 -9.18359375 22.76953125 C-8.47158219 21.1034712 -7.72193736 19.4517911 -6.90234375 17.8359375 C-5.84725602 15.83437301 -5.84725602 15.83437301 -5.125 12.8125 C-3.80310389 8.33274095 -1.97314742 4.22406803 0 0 Z " fill="#D16AE3" transform="translate(273,239)"/>
<path d="M0 0 C0.66 0 1.32 0 2 0 C1.34 1.98 0.68 3.96 0 6 C0.99 6 1.98 6 3 6 C3.33 5.34 3.66 4.68 4 4 C4.97839844 4.03480469 4.97839844 4.03480469 5.9765625 4.0703125 C11.08698903 4.17583753 15.20425033 4.01926302 20 2 C20 2.66 20 3.32 20 4 C19.34 4 18.68 4 18 4 C17.67 4.99 17.34 5.98 17 7 C13.04 7 9.08 7 5 7 C5 38.02 5 69.04 5 101 C20.18 101 35.36 101 51 101 C61.39361095 101.05810112 71.78644547 101.12505933 82.1796875 101.21875 C84.84921138 101.24133934 87.51873614 101.26377382 90.18826294 101.28601074 C96.34204006 101.33759195 102.49579881 101.39108065 108.64955246 101.4453826 C116.39265485 101.51359654 124.13578048 101.57903605 131.87890625 101.64453125 C145.58596039 101.76048374 159.29297613 101.88039992 173 102 C173 70.32 173 38.64 173 6 C173.33 6 173.66 6 174 6 C174 38.34 174 70.68 174 104 C159.09455927 104.02016974 144.18915689 104.04025084 129.28371334 104.05025387 C121.26506367 104.05572049 113.24642479 104.06257064 105.2277832 104.07543945 C98.86256691 104.08564957 92.49735888 104.09191329 86.13213462 104.09408849 C82.78558725 104.09535283 79.43908166 104.09873836 76.09253883 104.10573006 C51.70772826 104.15449611 27.39328401 103.54207298 3 103 C2.505 55.48 2.505 55.48 2 7 C0.68 6.67 -0.64 6.34 -2 6 C-1.34 4.02 -0.68 2.04 0 0 Z " fill="#DDBF4C" transform="translate(250,294)"/>
<path d="M0 0 C5.28 0.66 10.56 1.32 16 2 C16.02312121 14.7603387 16.04091395 27.52067245 16.05181217 40.28102779 C16.05704149 46.20550715 16.06414001 52.12997222 16.07543945 58.05444336 C16.08626661 63.76672571 16.09227647 69.47899428 16.09487724 75.19128609 C16.0967318 77.37588277 16.100353 79.56047865 16.10573006 81.7450695 C16.11293821 84.79352349 16.11399104 87.84191979 16.11352539 90.89038086 C16.11712067 91.80315796 16.12071594 92.71593506 16.12442017 93.65637207 C16.11405216 99.88594784 16.11405216 99.88594784 15 101 C13.36776544 101.09605864 11.7313561 101.12187821 10.09629822 101.12025452 C8.50396111 101.12231651 8.50396111 101.12231651 6.87945557 101.12442017 C5.70485779 101.12082489 4.53026001 101.11722961 3.32006836 101.11352539 C2.09097244 101.11367142 0.86187653 101.11381744 -0.40446472 101.1139679 C-3.78448672 101.11338892 -7.16444829 101.10835964 -10.54445958 101.10139394 C-14.07321194 101.09515988 -17.60196503 101.09455656 -21.13072205 101.09336853 C-27.81723119 101.09025537 -34.50372406 101.08204218 -41.19022602 101.07201904 C-48.80074303 101.06085744 -56.4112608 101.05534733 -64.02178395 101.05032361 C-79.68119874 101.03985956 -95.34059727 101.02226041 -111 101 C-111.33 100.34 -111.66 99.68 -112 99 C-70.42 99 -28.84 99 14 99 C14 67.32 14 35.64 14 3 C10.7 3 7.4 3 4 3 C2.68 2.01 1.36 1.02 0 0 Z " fill="#E1B665" transform="translate(192,297)"/>
<path d="M0 0 C1.54077222 3.08154443 1.05868923 6.30071529 0.9921875 9.67578125 C0.97466421 11.2415299 0.9577566 12.80728554 0.94140625 14.37304688 C0.9104933 16.84191189 0.87503897 19.31042798 0.82861328 21.77905273 C0.78614488 24.16133917 0.76279321 26.54321862 0.7421875 28.92578125 C0.72356659 29.65928299 0.70494568 30.39278473 0.6857605 31.14851379 C0.66337013 35.6462687 1.25076812 38.41763026 4 42 C15.12469641 51.98370191 21.6576813 48.32065486 40 49 C40 81.67 40 114.34 40 148 C24.49 148 8.98 148 -7 148 C-6.505 147.01 -6.505 147.01 -6 146 C8.52 146 23.04 146 38 146 C38 114.32 38 82.64 38 50 C29.09 50 20.18 50 11 50 C-0.25 42.5 -0.25 42.5 -2 39 C-2.08691001 36.15570643 -2.11553802 33.33620824 -2.09765625 30.4921875 C-2.0962413 29.65156769 -2.09482635 28.81094788 -2.09336853 27.94485474 C-2.08776237 25.25486725 -2.07520886 22.56496241 -2.0625 19.875 C-2.05748579 18.05338662 -2.05292275 16.23177193 -2.04882812 14.41015625 C-2.03779094 9.94007223 -2.0205222 5.47005014 -2 1 C-1.34 0.67 -0.68 0.34 0 0 Z " fill="#7C8AAF" transform="translate(430,251)"/>
<path d="M0 0 C0.65593165 -0.00170885 1.3118633 -0.0034177 1.98767167 -0.00517833 C4.18958957 -0.00847738 6.39120396 0.00253706 8.59309387 0.01345825 C10.16987094 0.01402228 11.74664853 0.01370598 13.32342529 0.01257324 C17.60828079 0.01199839 21.89302477 0.02377413 26.1778543 0.03772116 C30.65417783 0.05020644 35.13050379 0.05139727 39.60684204 0.05377197 C48.08534941 0.05999323 56.56380534 0.07641277 65.04229003 0.09647095 C74.69392207 0.11880989 84.34555655 0.12981833 93.997208 0.13986182 C113.85317331 0.16077844 133.70909226 0.19596694 153.5650177 0.24050903 C153.2350177 0.90050903 152.9050177 1.56050903 152.5650177 2.24050903 C151.3941148 2.23912634 151.3941148 2.23912634 150.1995573 2.23771572 C131.22151975 2.21564863 112.24348476 2.19909167 93.26543713 2.18869686 C84.08786751 2.18353663 74.91030644 2.17649911 65.73274231 2.16506958 C57.73525894 2.15511443 49.73778176 2.14865362 41.74029237 2.14642054 C37.50418316 2.14511485 33.26809168 2.14203791 29.03198814 2.13477898 C25.04710553 2.12800568 21.06224798 2.12589476 17.07736015 2.12740135 C15.6128043 2.12712562 14.14824763 2.12512824 12.68369675 2.12130356 C10.68790031 2.11634597 8.69209051 2.11811625 6.69628906 2.12025452 C5.57815417 2.11933272 4.46001928 2.11841093 3.30800152 2.1174612 C0.47264091 2.11941478 0.47264091 2.11941478 -2.4349823 3.24050903 C-4.0849823 2.91050903 -5.7349823 2.58050903 -7.4349823 2.24050903 C-7.7649823 33.59050903 -8.0949823 64.94050903 -8.4349823 97.24050903 C0.4750177 97.24050903 9.3850177 97.24050903 18.5650177 97.24050903 C18.5650177 97.90050903 18.5650177 98.56050903 18.5650177 99.24050903 C9.3250177 99.24050903 0.0850177 99.24050903 -9.4349823 99.24050903 C-9.50265807 86.62782775 -9.55774051 74.01526632 -9.59041882 61.40244484 C-9.60609977 55.5463145 -9.62738233 49.6903144 -9.66130066 43.83425903 C-9.69380749 38.18679899 -9.71181699 32.53946453 -9.71961403 26.89191818 C-9.72517317 24.73324989 -9.73602822 22.57458875 -9.75217247 20.41597366 C-9.77383137 17.40111485 -9.77695407 14.3867803 -9.77555847 11.37185669 C-9.7863443 10.4720256 -9.79713013 9.57219452 -9.8082428 8.64509583 C-9.79574585 6.16351318 -9.79574585 6.16351318 -9.4349823 2.24050903 C-5.84169052 -0.15501882 -4.26981605 -0.00668726 0 0 Z " fill="#C0DA29" transform="translate(45.43498229980469,141.75949096679688)"/>
<path d="M0 0 C0.99 0 1.98 0 3 0 C4.7026057 3.40521141 4.12864821 7.29392119 4.11352539 11.03955078 C4.11367142 11.97618561 4.11381744 12.91282043 4.1139679 13.87783813 C4.11326944 16.98368622 4.10548015 20.08947485 4.09765625 23.1953125 C4.09579183 25.34479744 4.09436804 27.4942828 4.09336853 29.64376831 C4.08954522 35.30895149 4.07971651 40.97410915 4.06866455 46.63928223 C4.05665078 53.43241346 4.0520473 60.22555321 4.04621124 67.01869202 C4.03650467 77.34581244 4.01734679 87.67287684 4 98 C-11.18 98 -26.36 98 -42 98 C-42 97.34 -42 96.68 -42 96 C-27.48 96 -12.96 96 2 96 C2 64.98 2 33.96 2 2 C1.34 2 0.68 2 0 2 C0 1.34 0 0.68 0 0 Z " fill="#AF81AA" transform="translate(249,301)"/>
<path d="M0 0 C4.81777081 5.73544145 7.01627755 13.48903444 9.75 20.39453125 C9.9975 21.01714844 10.245 21.63976562 10.5 22.28125 C10.7165625 22.82845703 10.933125 23.37566406 11.15625 23.93945312 C12.39944556 26.97549783 13.70766234 29.98454547 15 33 C21.93 33 28.86 33 36 33 C36.66 29.7 37.32 26.4 38 23 C38.99 22.67 39.98 22.34 41 22 C41.185625 20.7934375 41.185625 20.7934375 41.375 19.5625 C41.58125 18.716875 41.7875 17.87125 42 17 C42.66 16.67 43.32 16.34 44 16 C43.34 18.64 42.68 21.28 42 24 C41.34 24 40.68 24 40 24 C40.0928125 25.60875 40.0928125 25.60875 40.1875 27.25 C39.98829346 31.23413073 39.76714012 32.27997434 37 35 C34.5480957 35.45410156 34.5480957 35.45410156 31.67578125 35.390625 C30.64775391 35.37773437 29.61972656 35.36484375 28.56054688 35.3515625 C27.48869141 35.31804687 26.41683594 35.28453125 25.3125 35.25 C23.68731445 35.22292969 23.68731445 35.22292969 22.02929688 35.1953125 C19.35197854 35.14813508 16.67643091 35.08232249 14 35 C10 28.25 10 28.25 10 26 C8.35 26 6.7 26 5 26 C4.67 54.05 4.34 82.1 4 111 C3.67 111 3.34 111 3 111 C3 78.66 3 46.32 3 13 C-0.3 13 -3.6 13 -7 13 C-7.66 12.34 -8.32 11.68 -9 11 C-5.04 11 -1.08 11 3 11 C2.505 9.9275 2.01 8.855 1.5 7.75 C0.11346089 4.74583192 0 3.54065105 0 0 Z " fill="#D171BE" transform="translate(205,286)"/>
<path d="M0 0 C0.33 0 0.66 0 1 0 C0.65813528 7.99963437 0.65813528 7.99963437 -1.5625 11.375 C-13.23143337 19.15428892 -23.13119459 16 -38 16 C-38 47.68 -38 79.36 -38 112 C-23.81 112 -9.62 112 5 112 C5 112.33 5 112.66 5 113 C-9.52 113 -24.04 113 -39 113 C-39 80.33 -39 47.66 -39 14 C-29.76 13.67 -20.52 13.34 -11 13 C-5.16364509 9.10909673 -2.19084849 6.57254546 0 0 Z " fill="#C8E02E" transform="translate(75,284)"/>
<path d="M0 0 C0.33 0 0.66 0 1 0 C1 31.68 1 63.36 1 96 C-8.57 96.33 -18.14 96.66 -28 97 C-29.98 97.495 -29.98 97.495 -32 98 C-33.02651373 99.71519747 -33.02651373 99.71519747 -34 102 C-34.8402664 103.04645781 -35.68617973 104.08839205 -36.53588867 105.12719727 C-39.47413048 109.20664391 -39.66213883 112.42552606 -39.48828125 117.33984375 C-39.48120651 118.10680069 -39.47413177 118.87375763 -39.46684265 119.66395569 C-39.43907691 122.08950553 -39.37638136 124.51266009 -39.3125 126.9375 C-39.28739368 128.59176329 -39.26458461 130.24606314 -39.24414062 131.90039062 C-39.18931004 135.93450251 -39.10317 139.96684663 -39 144 C-40.47729492 142.96289062 -40.47729492 142.96289062 -42 141 C-42.28605033 138.44749318 -42.39698336 136.14412804 -42.36328125 133.59375 C-42.36377975 132.87264038 -42.36427826 132.15153076 -42.36479187 131.40856934 C-42.36245362 129.88546998 -42.3527396 128.36236661 -42.33618164 126.83935547 C-42.31258541 124.50843747 -42.31562248 122.17866337 -42.32226562 119.84765625 C-42.31668871 118.36718068 -42.30957874 116.88670993 -42.30078125 115.40625 C-42.30169266 114.7093103 -42.30260406 114.01237061 -42.30354309 113.29431152 C-42.25010076 109.64566575 -42.08125257 108.12187885 -40 105 C-39.34 105 -38.68 105 -38 105 C-37.5978125 104.13375 -37.5978125 104.13375 -37.1875 103.25 C-34.91664838 98.94733377 -33.4700314 97.2350157 -29 95 C-19.43 95 -9.86 95 0 95 C0 63.65 0 32.3 0 0 Z " fill="#F6B74A" transform="translate(423,144)"/>
<path d="M0 0 C15.18 0.33 30.36 0.66 46 1 C46 33.67 46 66.34 46 100 C31.99585962 101.00029574 31.99585962 101.00029574 25.09375 100.91015625 C19.71436438 101.1409881 14.73522201 102.4674543 10 105 C11 102 11 102 14 99 C24.23 99 34.46 99 45 99 C45 66.99 45 34.98 45 2 C30.15 2 15.3 2 0 2 C0 1.34 0 0.68 0 0 Z " fill="#529392" transform="translate(424,142)"/>
<path d="M0 0 C1.54077222 3.08154443 1.05868923 6.30071529 0.9921875 9.67578125 C0.97466421 11.2415299 0.9577566 12.80728554 0.94140625 14.37304688 C0.9104933 16.84191189 0.87503897 19.31042798 0.82861328 21.77905273 C0.78614488 24.16133917 0.76279321 26.54321862 0.7421875 28.92578125 C0.72356659 29.65928299 0.70494568 30.39278473 0.6857605 31.14851379 C0.66337013 35.6462687 1.25076812 38.41763026 4 42 C8.83299802 46.33730592 12.35749309 48.2150253 18.859375 48.4140625 C20.53193359 48.47207031 20.53193359 48.47207031 22.23828125 48.53125 C23.39714844 48.5621875 24.55601562 48.593125 25.75 48.625 C27.51150391 48.68300781 27.51150391 48.68300781 29.30859375 48.7421875 C32.20557268 48.8363982 35.10254626 48.92201602 38 49 C38 49.33 38 49.66 38 50 C33.62522526 50.11651725 29.25085173 50.18736 24.875 50.25 C23.6375 50.28351563 22.4 50.31703125 21.125 50.3515625 C9.87103842 50.47257284 9.87103842 50.47257284 5 46 C4.38511719 45.53335938 3.77023437 45.06671875 3.13671875 44.5859375 C-0.88888889 41.22222222 -0.88888889 41.22222222 -2 39 C-2.08691001 36.15570643 -2.11553802 33.33620824 -2.09765625 30.4921875 C-2.0962413 29.65156769 -2.09482635 28.81094788 -2.09336853 27.94485474 C-2.08776237 25.25486725 -2.07520886 22.56496241 -2.0625 19.875 C-2.05748579 18.05338662 -2.05292275 16.23177193 -2.04882812 14.41015625 C-2.03779094 9.94007223 -2.0205222 5.47005014 -2 1 C-1.34 0.67 -0.68 0.34 0 0 Z " fill="#8F86BA" transform="translate(430,251)"/>
<path d="M0 0 C15.18 0.33 30.36 0.66 46 1 C50 11 50 11 49 15 C47.23537317 11.91190305 47 10.76687864 47 7 C46.01 6.67 45.02 6.34 44 6 C44 5.01 44 4.02 44 3 C42.73816895 3.00523682 41.47633789 3.01047363 40.17626953 3.01586914 C35.50602932 3.03393458 30.83579221 3.04543769 26.16552734 3.05493164 C24.14208457 3.05996831 22.11864544 3.06679789 20.09521484 3.07543945 C17.19107157 3.08753412 14.28697631 3.09323488 11.3828125 3.09765625 C10.47443634 3.10281754 9.56606018 3.10797882 8.63015747 3.11329651 C7.78943695 3.11337204 6.94871643 3.11344757 6.08251953 3.11352539 C4.96999313 3.11685631 4.96999313 3.11685631 3.83499146 3.12025452 C2 3 2 3 0 2 C0 1.34 0 0.68 0 0 Z " fill="#6A95A5" transform="translate(199,142)"/>
<path d="M0 0 C2.3125 0.125 2.3125 0.125 5 1 C7.02201431 4.20733304 8 6.19154436 8 10 C6.08364783 10.05423638 4.16685075 10.09289963 2.25 10.125 C0.64898437 10.15980469 0.64898437 10.15980469 -0.984375 10.1953125 C-3.92470106 10.00487687 -5.52361878 9.52670104 -8 8 C-7.25 5.5625 -7.25 5.5625 -6 3 C-4 2.125 -4 2.125 -2 2 C-1.34 2.33 -0.68 2.66 0 3 C0 2.01 0 1.02 0 0 Z " fill="#D169E6" transform="translate(200,287)"/>
<path d="M0 0 C1.40742022 2.81484045 0.66652164 4.56936113 0.0625 7.625 C-0.13214844 8.62789062 -0.32679688 9.63078125 -0.52734375 10.6640625 C-0.76130859 11.82035156 -0.76130859 11.82035156 -1 13 C0.98 13 2.96 13 5 13 C5.04964866 17.58982793 5.08583672 22.17949754 5.10986328 26.76953125 C5.11988557 28.32912929 5.13350705 29.8887087 5.15087891 31.44824219 C5.1752941 33.69731254 5.1865209 35.94613322 5.1953125 38.1953125 C5.20563507 38.8861795 5.21595764 39.57704651 5.22659302 40.28884888 C5.22770434 45.14601279 4.85129877 49.82897832 1.59765625 53.64453125 C-0.92683211 55.56519797 -2.97036914 56.99012305 -6 58 C-6 57.34 -6 56.68 -6 56 C-5.34 56 -4.68 56 -4 56 C-4 55.34 -4 54.68 -4 54 C-3.21625 53.5875 -2.4325 53.175 -1.625 52.75 C1.78848979 50.47434014 1.98514746 48.93003801 3 45 C3.22059893 42.62340974 3.35288244 40.23758475 3.4140625 37.8515625 C3.43342865 37.19417084 3.4527948 36.53677917 3.4727478 35.85946655 C3.53202461 33.78143865 3.57871794 31.70335376 3.625 29.625 C3.66322778 28.2070085 3.70228223 26.78903903 3.7421875 25.37109375 C3.83768171 21.91426539 3.92190189 18.45727017 4 15 C1.03 14.67 -1.94 14.34 -5 14 C-4.34580901 8.93001981 -2.1453591 4.58009223 0 0 Z " fill="#C9849C" transform="translate(273,239)"/>
<path d="M0 0 C0.33 0 0.66 0 1 0 C0.65813528 7.99963437 0.65813528 7.99963437 -1.5625 11.375 C-9.27090328 16.51393552 -16.99558535 16.52110374 -26 16.6875 C-27.25167969 16.72166016 -28.50335938 16.75582031 -29.79296875 16.79101562 C-32.86188957 16.87300969 -35.93054206 16.94232019 -39 17 C-39 16.01 -39 15.02 -39 14 C-38.18321777 13.9906543 -37.36643555 13.98130859 -36.52490234 13.97167969 C-32.80766494 13.91784493 -29.091668 13.83422006 -25.375 13.75 C-24.08980469 13.73582031 -22.80460937 13.72164063 -21.48046875 13.70703125 C-12.39044055 13.62292601 -12.39044055 13.62292601 -5 9 C-2.73250274 5.99709822 -1.18833551 3.56500652 0 0 Z " fill="#90CD2B" transform="translate(75,284)"/>
<path d="M0 0 C0.67595315 1.41225926 1.34040059 2.83002905 2 4.25 C2.37125 5.03890625 2.7425 5.8278125 3.125 6.640625 C4 9 4 9 4 13 C3.01 13 2.02 13 1 13 C0.855625 11.9275 0.71125 10.855 0.5625 9.75 C0.16250558 7.08337051 -0.27591924 4.58600271 -1 2 C-2.65 2 -4.3 2 -6 2 C-5.83923477 2.5692218 -5.67846954 3.1384436 -5.51283264 3.72491455 C-4.99640479 6.01594948 -4.84295704 8.05637245 -4.79467773 10.40136719 C-4.77473251 11.2619574 -4.75478729 12.12254761 -4.73423767 13.00921631 C-4.70916893 14.38910736 -4.70916893 14.38910736 -4.68359375 15.796875 C-4.66281265 16.74564514 -4.64203156 17.69441528 -4.62062073 18.67193604 C-4.55532066 21.69788482 -4.49633112 24.7239192 -4.4375 27.75 C-4.3942962 29.80339421 -4.35068131 31.85677982 -4.30664062 33.91015625 C-4.19965927 38.9400168 -4.09833677 43.96996332 -4 49 C-6.08382862 45.87425707 -6.25889959 45.09547445 -6.31884766 41.52856445 C-6.33871735 40.62785721 -6.35858704 39.72714996 -6.37905884 38.79914856 C-6.39061005 37.83031235 -6.40216125 36.86147614 -6.4140625 35.86328125 C-6.43342865 34.86870407 -6.4527948 33.87412689 -6.4727478 32.84941101 C-6.53256159 29.6705281 -6.57893639 26.49160902 -6.625 23.3125 C-6.6631781 21.15818727 -6.70222973 19.00388983 -6.7421875 16.84960938 C-6.83826451 11.56654191 -6.92330674 6.28338247 -7 1 C-4 0 -4 0 0 0 Z " fill="#D98299" transform="translate(188,239)"/>
<path d="M0 0 C0.66 0 1.32 0 2 0 C1.72244276 3.77201179 1.42554298 7.54225555 1.125 11.3125 C1.00705078 12.9202832 1.00705078 12.9202832 0.88671875 14.56054688 C0.80292969 15.58857422 0.71914062 16.61660156 0.6328125 17.67578125 C0.55949707 18.62364502 0.48618164 19.57150879 0.41064453 20.5480957 C0 23 0 23 -2 26 C-2 24.68 -2 23.36 -2 22 C-4.31 22.33 -6.62 22.66 -9 23 C-9.33 17.06 -9.66 11.12 -10 5 C-9.34 5 -8.68 5 -8 5 C-8 9.95 -8 14.9 -8 20 C-6.02 20 -4.04 20 -2 20 C-2.02320313 19.39414063 -2.04640625 18.78828125 -2.0703125 18.1640625 C-2.20628078 11.85124971 -1.46211966 6.13568071 0 0 Z " fill="#C37EAD" transform="translate(235,219)"/>
<path d="M0 0 C0.33 0 0.66 0 1 0 C1 1.98 1 3.96 1 6 C0.34 6 -0.32 6 -1 6 C-1 8.31 -1 10.62 -1 13 C-1.66 13 -2.32 13 -3 13 C-3 14.32 -3 15.64 -3 17 C-3.66 17 -4.32 17 -5 17 C-4.81535634 21.34184202 -4.81535634 21.34184202 -3 25 C-1.48530552 25.23192865 0.03754562 25.41215238 1.5625 25.5625 C2.38878906 25.64628906 3.21507812 25.73007812 4.06640625 25.81640625 C5.02353516 25.90728516 5.02353516 25.90728516 6 26 C4 28 4 28 1.6171875 28.1953125 C0.71226562 28.17210937 -0.19265625 28.14890625 -1.125 28.125 C-2.49011719 28.09792969 -2.49011719 28.09792969 -3.8828125 28.0703125 C-4.58148438 28.04710937 -5.28015625 28.02390625 -6 28 C-8.07068209 22.42125511 -8.0831375 19.69885489 -5.8125 14 C-5.34070313 12.79085938 -4.86890625 11.58171875 -4.3828125 10.3359375 C-3.92648437 9.23507812 -3.47015625 8.13421875 -3 7 C-2.50113281 5.78183594 -2.50113281 5.78183594 -1.9921875 4.5390625 C-1.35182125 3.01586123 -0.68103941 1.50545554 0 0 Z " fill="#D87FA3" transform="translate(260,271)"/>
<path d="M0 0 C0.66 0.33 1.32 0.66 2 1 C1.67 1.99 1.34 2.98 1 4 C0.91505272 6.65894107 0.88405204 9.29085377 0.90234375 11.94921875 C0.9037587 12.72183548 0.90517365 13.49445221 0.90663147 14.29048157 C0.91222534 16.75619389 0.92477667 19.22181515 0.9375 21.6875 C0.94251579 23.36002473 0.94707856 25.03255088 0.95117188 26.70507812 C0.96219276 30.80342046 0.97945316 34.90169479 1 39 C-0.47729492 37.96289062 -0.47729492 37.96289062 -2 36 C-2.28605033 33.44749318 -2.39698336 31.14412804 -2.36328125 28.59375 C-2.36377975 27.87264038 -2.36427826 27.15153076 -2.36479187 26.40856934 C-2.36245362 24.88546998 -2.3527396 23.36236661 -2.33618164 21.83935547 C-2.31258541 19.50843747 -2.31562248 17.17866337 -2.32226562 14.84765625 C-2.31668871 13.36718068 -2.30957874 11.88670993 -2.30078125 10.40625 C-2.30169266 9.7093103 -2.30260406 9.01237061 -2.30354309 8.29431152 C-2.25010076 4.64566575 -2.08125257 3.12187885 0 0 Z " fill="#FDC62F" transform="translate(383,249)"/>
<path d="M0 0 C0 2.83967231 -0.40267181 5.23735711 -1 8 C-1.66 8 -2.32 8 -3 8 C-2.938125 9.0725 -2.87625 10.145 -2.8125 11.25 C-3.01170654 15.23413073 -3.23285988 16.27997434 -6 19 C-8.4519043 19.45410156 -8.4519043 19.45410156 -11.32421875 19.390625 C-12.35224609 19.37773437 -13.38027344 19.36484375 -14.43945312 19.3515625 C-15.51130859 19.31804687 -16.58316406 19.28453125 -17.6875 19.25 C-18.77095703 19.23195313 -19.85441406 19.21390625 -20.97070312 19.1953125 C-23.64802146 19.14813508 -26.32356909 19.08232249 -29 19 C-32.22265625 13.921875 -32.22265625 13.921875 -33 12 C-32.67 10.68 -32.34 9.36 -32 8 C-30.68 10.97 -29.36 13.94 -28 17 C-21.07 17 -14.14 17 -7 17 C-6.34 13.7 -5.68 10.4 -5 7 C-4.01 6.67 -3.02 6.34 -2 6 C-1.855625 5.195625 -1.71125 4.39125 -1.5625 3.5625 C-1 1 -1 1 0 0 Z " fill="#D980A0" transform="translate(248,302)"/>
<path d="M0 0 C0.33 0 0.66 0 1 0 C0.67 8.91 0.34 17.82 0 27 C-0.33 27 -0.66 27 -1 27 C-1.66 29.31 -2.32 31.62 -3 34 C-5.875 34.125 -5.875 34.125 -9 34 C-11 32 -11 32 -11.1953125 30.0546875 C-11.13020833 28.03645833 -11.06510417 26.01822917 -11 24 C-10.34 24.33 -9.68 24.66 -9 25 C-9 26.98 -9 28.96 -9 31 C-7.35 31.33 -5.7 31.66 -4 32 C-3.91435791 31.20827393 -3.82871582 30.41654785 -3.74047852 29.60083008 C-3.35013642 26.00446415 -2.95635447 22.4084829 -2.5625 18.8125 C-2.42779297 17.56662109 -2.29308594 16.32074219 -2.15429688 15.03710938 C-2.02216797 13.83505859 -1.89003906 12.63300781 -1.75390625 11.39453125 C-1.63345947 10.28956299 -1.5130127 9.18459473 -1.38891602 8.04614258 C-1.04166598 5.32634427 -0.57766853 2.67907403 0 0 Z " fill="#D5C43E" transform="translate(237,218)"/>
<path d="M0 0 C0.66 0 1.32 0 2 0 C1.34 1.98 0.68 3.96 0 6 C0.99 6 1.98 6 3 6 C3.33 5.34 3.66 4.68 4 4 C4.97839844 4.03480469 4.97839844 4.03480469 5.9765625 4.0703125 C11.08698903 4.17583753 15.20425033 4.01926302 20 2 C20 2.66 20 3.32 20 4 C19.34 4 18.68 4 18 4 C17.67 4.99 17.34 5.98 17 7 C13.04 7 9.08 7 5 7 C5 9.64 5 12.28 5 15 C4.67 15 4.34 15 4 15 C3.855625 14.05125 3.71125 13.1025 3.5625 12.125 C3.17064601 9.1065506 3.17064601 9.1065506 2 7 C-0.02463255 6.34786708 -0.02463255 6.34786708 -2 6 C-1.34 4.02 -0.68 2.04 0 0 Z " fill="#D3C13C" transform="translate(250,294)"/>
<path d="M0 0 C0.99 0 1.98 0 3 0 C3 1.98 3 3.96 3 6 C3.66 6 4.32 6 5 6 C5 7.65 5 9.3 5 11 C5.66 11 6.32 11 7 11 C8.64800856 14.66447432 9.33580973 17.81203466 9.625 21.8125 C9.69976562 22.78832031 9.77453125 23.76414063 9.8515625 24.76953125 C9.92503906 25.87361328 9.92503906 25.87361328 10 27 C9.34 26.67 8.68 26.34 8 26 C7.25390625 23.671875 7.25390625 23.671875 6.5625 20.75 C5.51645737 16.65564123 4.33119115 13.54746479 2 10 C0.57144482 6.31583137 0 3.99667005 0 0 Z " fill="#D376B7" transform="translate(208,170)"/>
<path d="M0 0 C2.81548426 3.35176698 4.43117472 6.95953489 6 11 C6.35578125 11.91007812 6.7115625 12.82015625 7.078125 13.7578125 C10 21.47403169 10 21.47403169 10 26 C8.35 26 6.7 26 5 26 C3.87096774 21.48387097 3.87096774 21.48387097 4.5 19.125 C5.08257876 16.64904027 4.89520189 14.76374763 4.5625 12.25 C4.40974609 11.05117188 4.40974609 11.05117188 4.25390625 9.828125 C4.17011719 9.22484375 4.08632812 8.6215625 4 8 C3.34 8 2.68 8 2 8 C0.23537317 4.91190305 0 3.76687864 0 0 Z " fill="#D579B3" transform="translate(205,286)"/>
<path d="M0 0 C0.66163651 0.00424484 1.32327301 0.00848969 2.00495911 0.01286316 C4.11440035 0.02963182 6.22287971 0.06727776 8.33203125 0.10546875 C9.76365806 0.12051807 11.19529987 0.13420605 12.62695312 0.14648438 C16.13312413 0.17952845 19.63873379 0.23129708 23.14453125 0.29296875 C23.14453125 0.62296875 23.14453125 0.95296875 23.14453125 1.29296875 C11.76165559 2.37154918 11.76165559 2.37154918 6.45703125 2.23046875 C0.29433401 2.15203442 -5.41594095 3.38373815 -10.85546875 6.29296875 C-8.81641701 0.17581354 -6.23204163 -0.0788866 0 0 Z " fill="#878DBF" transform="translate(444.85546875,240.70703125)"/>
<path d="M0 0 C0.5625 1.9375 0.5625 1.9375 1 4 C0 5 0 5 -2.04125977 5.11352539 C-2.91580811 5.10828857 -3.79035645 5.10305176 -4.69140625 5.09765625 C-5.63564453 5.09443359 -6.57988281 5.09121094 -7.55273438 5.08789062 C-8.54595703 5.07951172 -9.53917969 5.07113281 -10.5625 5.0625 C-11.55958984 5.05798828 -12.55667969 5.05347656 -13.58398438 5.04882812 C-16.05604849 5.03700007 -18.52799518 5.02051849 -21 5 C-21.33 4.34 -21.66 3.68 -22 3 C-15.07 3 -8.14 3 -1 3 C-0.67 2.01 -0.34 1.02 0 0 Z " fill="#F3B44E" transform="translate(241,315)"/>
<path d="M0 0 C1.83884766 0.72123047 1.83884766 0.72123047 3.71484375 1.45703125 C9.61986756 3.42537252 15.38280468 3.55712668 21.5625 3.6875 C23.21862305 3.73874023 23.21862305 3.73874023 24.90820312 3.79101562 C27.60536703 3.87274786 30.30223643 3.94213826 33 4 C33 4.33 33 4.66 33 5 C28.79168132 5.02914348 24.58338878 5.04684712 20.375 5.0625 C18.59029297 5.07506836 18.59029297 5.07506836 16.76953125 5.08789062 C15.61582031 5.09111328 14.46210938 5.09433594 13.2734375 5.09765625 C11.68668213 5.10551147 11.68668213 5.10551147 10.06787109 5.11352539 C6.96637654 4.99875578 4.04652343 4.57696282 1 4 C0.67 2.68 0.34 1.36 0 0 Z " fill="#F4B15D" transform="translate(390,295)"/>
<path d="M0 0 C0.33 0 0.66 0 1 0 C1 4.62 1 9.24 1 14 C-6.59 14 -14.18 14 -22 14 C-22 13.67 -22 13.34 -22 13 C-20.81921875 12.93941406 -19.6384375 12.87882813 -18.421875 12.81640625 C-16.8645723 12.73197418 -15.30728121 12.64732751 -13.75 12.5625 C-12.97269531 12.52318359 -12.19539063 12.48386719 -11.39453125 12.44335938 C-10.26337891 12.38051758 -10.26337891 12.38051758 -9.109375 12.31640625 C-8.41811523 12.27974854 -7.72685547 12.24309082 -7.01464844 12.20532227 C-4.64379361 12.0121859 -4.64379361 12.0121859 -1 11 C-0.67 7.37 -0.34 3.74 0 0 Z " fill="#FECE13" transform="translate(422,225)"/>
<path d="M0 0 C0.99 0.33 1.98 0.66 3 1 C3 3.31 3 5.62 3 8 C3.66 8 4.32 8 5 8 C5 9.32 5 10.64 5 12 C5.66 12 6.32 12 7 12 C7 14.64 7 17.28 7 20 C4.42178861 17.42178861 3.97565192 15.17300626 2.9375 11.6875 C2.59589844 10.55699219 2.25429687 9.42648438 1.90234375 8.26171875 C1.1421218 5.51373032 0.51015719 2.80323486 0 0 Z " fill="#D27AAD" transform="translate(200,144)"/>
<path d="M0 0 C0.99 0 1.98 0 3 0 C4.13764351 4.26616316 5 7.56486311 5 12 C5.66 12 6.32 12 7 12 C7.66 14.97 8.32 17.94 9 21 C6.02067065 17.51069535 4.45260749 13.60283265 2.8125 9.375 C2.53986328 8.694375 2.26722656 8.01375 1.98632812 7.3125 C0 2.27449483 0 2.27449483 0 0 Z " fill="#FBC236" transform="translate(210,295)"/>
<path d="M0 0 C3.9710884 3.9710884 4.24549112 8.62412423 5 14 C5.62256028 16.01416562 6.27566653 18.02015519 7 20 C4.44971017 18.72485508 4.06918289 17.59658703 3 15 C3 14.01 3 13.02 3 12 C2.34 12 1.68 12 1 12 C0.67 8.04 0.34 4.08 0 0 Z " fill="#D8829E" transform="translate(192,252)"/>
<path d="M0 0 C0.99 0 1.98 0 3 0 C3.23460937 0.64453125 3.46921875 1.2890625 3.7109375 1.953125 C4.81161073 4.2077908 4.81161073 4.2077908 7.1640625 4.609375 C7.97617187 4.65578125 8.78828125 4.7021875 9.625 4.75 C10.85089844 4.83507812 10.85089844 4.83507812 12.1015625 4.921875 C12.72804688 4.94765625 13.35453125 4.9734375 14 5 C12 7 12 7 9.6171875 7.1953125 C8.71226562 7.17210937 7.80734375 7.14890625 6.875 7.125 C5.50988281 7.09792969 5.50988281 7.09792969 4.1171875 7.0703125 C3.41851562 7.04710937 2.71984375 7.02390625 2 7 C1.34 4.69 0.68 2.38 0 0 Z " fill="#B283A2" transform="translate(252,292)"/>
<path d="M0 0 C0.33 0 0.66 0 1 0 C0.65355522 8.10680787 0.65355522 8.10680787 -1.875 11.5625 C-4 13 -4 13 -7 13 C-5.82690214 10.45828796 -4.5091503 8.27116256 -2.9375 5.9375 C-0.89527457 3.1164266 -0.89527457 3.1164266 0 0 Z " fill="#BED31D" transform="translate(75,284)"/>
<path d="M0 0 C0.99 0 1.98 0 3 0 C1.64851723 4.17332873 0.1587928 8.25149202 -1.5 12.3125 C-1.9228125 13.36050781 -2.345625 14.40851563 -2.78125 15.48828125 C-4 18 -4 18 -6 19 C-6 17.68 -6 16.36 -6 15 C-5.34 15 -4.68 15 -4 15 C-3.86722656 14.28457031 -3.73445313 13.56914062 -3.59765625 12.83203125 C-3.01226465 10.05811678 -2.26841556 7.39700725 -1.4375 4.6875 C-1.16808594 3.80449219 -0.89867187 2.92148438 -0.62109375 2.01171875 C-0.41613281 1.34785156 -0.21117187 0.68398437 0 0 Z " fill="#FBC335" transform="translate(265,253)"/>
<path d="M0 0 C1.72251754 4.0845326 0.07280563 7.36973696 -1.4375 11.25 C-1.68048828 11.8996875 -1.92347656 12.549375 -2.17382812 13.21875 C-2.77285994 14.81616817 -3.38514321 16.40860594 -4 18 C-5.09658936 14.71023192 -4.79953138 13.28696233 -4 10 C-3.34 10 -2.68 10 -2 10 C-2.226875 8.906875 -2.45375 7.81375 -2.6875 6.6875 C-3 3 -3 3 -1.5625 1.0625 C-1.046875 0.711875 -0.53125 0.36125 0 0 Z " fill="#FAC036" transform="translate(257,274)"/>
<path d="M0 0 C1.66611905 -0.042721 3.33382885 -0.04063832 5 0 C5.33 0.33 5.66 0.66 6 1 C5.94921875 2.9609375 5.94921875 2.9609375 5.6875 5.375 C5.60886719 6.16648438 5.53023438 6.95796875 5.44921875 7.7734375 C5 10 5 10 3 13 C2.85714286 5.57142857 2.85714286 5.57142857 4 2 C2.68 1.34 1.36 0.68 0 0 Z " fill="#ADD127" transform="translate(275,239)"/>
<path d="M0 0 C1.33010838 2.66021676 0.84010022 4.09608836 0.3125 7 C0.16425781 7.886875 0.01601563 8.77375 -0.13671875 9.6875 C-1 12 -1 12 -3.08203125 13.3125 C-4.03142578 13.6528125 -4.03142578 13.6528125 -5 14 C-4.34580901 8.93001981 -2.1453591 4.58009223 0 0 Z " fill="#B3BB4C" transform="translate(273,239)"/>
<path d="M0 0 C0.33 0.99 0.66 1.98 1 3 C1.66 3 2.32 3 3 3 C3.33 6.96 3.66 10.92 4 15 C0.89809455 10.34714182 -0.33846504 5.58467324 0 0 Z " fill="#DC8697" transform="translate(218,197)"/>
<path d="M0 0 C0.99 0 1.98 0 3 0 C3.33 3.63 3.66 7.26 4 11 C2 10 2 10 0.875 7.1875 C0 4 0 4 0 0 Z " fill="#E6977E" transform="translate(208,170)"/>
<path d="M0 0 C3 1 3 1 4.1875 2.6875 C5.19313465 5.54969093 5.13689641 7.98827908 5 11 C0 3.5 0 3.5 0 0 Z " fill="#FCC238" transform="translate(200,272)"/>
<path d="M0 0 C0.75 1.5625 0.75 1.5625 1 4 C-0.13084437 6.50286409 -1.52139516 8.67007722 -3 11 C-3.75 9.4375 -3.75 9.4375 -4 7 C-2.86915563 4.49713591 -1.47860484 2.32992278 0 0 Z " fill="#D8819A" transform="translate(268,253)"/>
<path d="M0 0 C1.73815004 3.22799293 3.00246808 6.47027167 4 10 C3.67 10.66 3.34 11.32 3 12 C2.67 10.68 2.34 9.36 2 8 C1.34 8 0.68 8 0 8 C0 5.36 0 2.72 0 0 Z " fill="#F8BA44" transform="translate(201,149)"/>
<path d="M0 0 C0.33 0 0.66 0 1 0 C0.44687265 4.02992782 -0.1558062 8.02022924 -1 12 C-1.33 12 -1.66 12 -2 12 C-2.05422947 10.5629191 -2.09289723 9.12524538 -2.125 7.6875 C-2.14820313 6.88699219 -2.17140625 6.08648437 -2.1953125 5.26171875 C-2 3 -2 3 0 0 Z " fill="#D479B0" transform="translate(241,198)"/>
</svg>
